<svg viewBox="0 0 800 800" xmlns="http://www.w3.org/2000/svg"><path d="M633.4424197398012,362.0267844880963 L633.6757714116686,167.61767071775466 M633.6757714116686,167.61767071775466 L670.7740725004141,193.01501181742304 M670.7740725004141,193.01501181742304 L699.6726065722689,221.74315158144233 M699.6726065722689,221.74315158144233 L719.4882434451556,252.9342915975735 M719.4882434451556,252.9342915975735 L729.6111370265915,285.64448940225395 M729.6111370265915,285.64448940225395 L729.7241216470538,318.8818954279215 M729.7241216470538,318.8818954279215 L719.813569737973,351.63662501805993 M719.813569737973,351.63662501805993 L700.1710355939385,382.91145747400327 M700.1710355939385,382.91145747400327 L671.3854865615162,411.75235586899646 M671.3854865615162,411.75235586899646 L634.3264251161058,437.2779215327766 M634.3264251161058,437.2779215327766 L590.118059309382,458.706769386058 M590.118059309382,458.706769386058 L540.1054015103064,475.3819950184343 M540.1054015103064,475.3819950184343 L485.8131504620212,486.79181751142556 M485.8131504620212,486.79181751142556 L428.89878240494716,492.58576981928826 M428.89878240494716,492.58576981928826 L371.10121759505284,492.58576981928826 M371.10121759505284,492.58576981928826 L314.1868495379788,486.79181751142556 M314.1868495379788,486.79181751142556 L259.89459848969364,475.3819950184343 M259.89459848969364,475.3819950184343 L209.88194069061794,458.706769386058 M209.88194069061794,458.706769386058 L165.6735748838936,437.2779215327762 M165.6735748838936,437.2779215327762 L128.61451343848375,411.7523558689964 M128.61451343848375,411.7523558689964 L99.82896440606146,382.9114574740032 M99.82896440606146,382.9114574740032 L80.1864302620271,351.63662501805993 M80.1864302620271,351.63662501805993 L70.27587835294617,318.88189542792145 M70.27587835294617,318.88189542792145 L70.38886297340855,285.64448940225384 M70.38886297340855,285.64448940225384 L80.5117565548444,252.9342915975735 M80.5117565548444,252.9342915975735 L100.3273934277309,221.74315158144225 M100.3273934277309,221.74315158144225 L129.22592749958585,193.01501181742296 M129.22592749958585,193.01501181742296 L166.32422858833203,167.6176707177543 M166.32422858833203,167.6176707177543 L210.49335556011258,146.31704757990605 M210.49335556011258,146.31704757990605 L260.3930287498923,129.75458101621058 M260.3930287498923,129.75458101621058 L314.51217691994026,118.42845144387883 M314.51217691994026,118.42845144387883 L371.2142026456519,112.6790312991211 M371.2142026456519,112.6790312991211 L428.7857973543481,112.6790312991211 M428.7857973543481,112.6790312991211 L485.48782308005974,118.42845144387883 M485.48782308005974,118.42845144387883 L539.6069712501078,129.75458101621058 M539.6069712501078,129.75458101621058 L589.5066444398874,146.31704757990605 M589.5066444398874,146.31704757990605 L633.6757714116686,167.61767071775466 M633.4424197398012,362.0267844880963 L589.3174422155003,340.70471138018627 M589.3174422155003,340.70471138018627 L539.4676123595082,324.12555975121506 M539.4676123595082,324.12555975121506 L485.40249714225405,312.788016950685 M485.40249714225405,312.788016950685 L428.7570677724895,307.0328021590569 M428.7570677724895,307.0328021590569 L371.24293222751055,307.0328021590569 M371.24293222751055,307.0328021590569 L314.59750285774595,312.788016950685 M314.59750285774595,312.788016950685 L260.5323876404918,324.12555975121506 M260.5323876404918,324.12555975121506 L210.6825577844999,340.70471138018627 M210.6825577844999,340.70471138018627 L166.557580260198,362.0267844880969 M166.557580260198,362.0267844880969 L129.4963968584691,387.449688757822 M129.4963968584691,387.449688757822 L100.62681748220331,416.20672818908673 M100.62681748220331,416.20672818908673 L80.83108246302533,447.42922628776574 M80.83108246302533,447.42922628776574 L70.71841769394598,480.1722877884102 M70.71841769394598,480.1722877884102 L70.60565892974665,513.4430645678236 M70.60565892974665,513.4430645678236 L80.50640649763545,546.2306579878534 M80.50640649763545,546.2306579878534 L100.12938482083462,577.5368487779344 M100.12938482083462,577.5368487779344 L128.8862050156264,606.4066471789113 M128.8862050156264,606.4066471789113 L165.90822721502684,631.9577763976306 M165.90822721502684,631.9577763976306 L210.07236513649346,653.4080746055158 M210.07236513649346,653.4080746055158 L260.03495374554075,670.0999856410492 M260.03495374554075,670.0999856410492 L314.272825807562,681.5212216128546 M314.272825807562,681.5212216128546 L371.1301730348924,687.3209687008789 M371.1301730348924,687.3209687008789 L428.8698269651076,687.3209687008789 M428.8698269651076,687.3209687008789 L485.72717419243804,681.5212216128546 M485.72717419243804,681.5212216128546 L539.9650462544594,670.0999856410492 M539.9650462544594,670.0999856410492 L589.9276348635067,653.4080746055158 M589.9276348635067,653.4080746055158 L634.0917727849758,631.9577763976292 M634.0917727849758,631.9577763976292 L671.1137949843737,606.4066471789115 M671.1137949843737,606.4066471789115 L699.8706151791655,577.5368487779344 M699.8706151791655,577.5368487779344 L719.4935935023648,546.2306579878534 M719.4935935023648,546.2306579878534 L729.3943410702534,513.4430645678237 M729.3943410702534,513.4430645678237 L729.2815823060541,480.1722877884103 M729.2815823060541,480.1722877884103 L719.1689175369747,447.42922628776574 M719.1689175369747,447.42922628776574 L699.3731825177967,416.20672818908685 M699.3731825177967,416.20672818908685 L670.5036031415309,387.4496887578221 M670.5036031415309,387.4496887578221 L633.4424197398012,362.0267844880963 M208.34283314252258,526.4542959899511 L348.6027715644209,607.5504614283785 M348.6027715644209,607.5504614283785 L540.3769680003309,577.8515086281627 M540.3769680003309,577.8515086281627 L591.5402835189727,467.1734426561833 M591.5402835189727,467.1734426561833 L451.28034495648535,386.3110441910676 M451.28034495648535,386.3110441910676 L259.85679880733005,415.89311343146426 M259.85679880733005,415.89311343146426 L208.34283314252258,526.4542959899511 M208.34283314252258,526.4542959899511 L208.19360487297425,375.1524633430677 M348.6027715644209,607.5504614283785 L348.56271919666915,456.18549774888686 M208.19360487297425,375.1524633430677 L348.56271919666915,456.18549774888686 M259.85679880733005,415.89311343146426 L259.74780459496975,264.67751908676155 M259.74780459496975,264.67751908676155 L208.19360487297425,375.1524633430677 M451.28034495648535,386.3110441910676 L451.32021529291353,235.11855719734436 M451.32021529291353,235.11855719734436 L259.74780459496975,264.67751908676155 M591.5402835189727,467.1734426561833 L591.6893297576357,315.9178250544711 M591.6893297576357,315.9178250544711 L451.32021529291353,235.11855719734436 M540.3769680003309,577.8515086281627 L540.4863262748845,426.50965251185085 M540.4863262748845,426.50965251185085 L591.6893297576357,315.9178250544711 M348.56271919666915,456.18549774888686 L540.4863262748845,426.50965251185085" stroke="black"  stroke-width="4"  fill="red"/></svg>